<?xml version="1.0" encoding="UTF-8" standalone="no"?>
<svg
   xmlns:dc="http://purl.org/dc/elements/1.1/"
   xmlns:cc="http://creativecommons.org/ns#"
   xmlns:rdf="http://www.w3.org/1999/02/22-rdf-syntax-ns#"
   xmlns:svg="http://www.w3.org/2000/svg"
   xmlns="http://www.w3.org/2000/svg"
   xmlns:xlink="http://www.w3.org/1999/xlink"
   id="svg8"
   version="1.1"
   viewBox="0 0 366.07501 144.53056"
   height="144.53056mm"
   width="366.07501mm">
  <defs
     id="defs2" />
  <metadata
     id="metadata5">
    <rdf:RDF>
      <cc:Work
         rdf:about="">
        <dc:format>image/svg+xml</dc:format>
        <dc:type
           rdf:resource="http://purl.org/dc/dcmitype/StillImage" />
        <dc:title></dc:title>
      </cc:Work>
    </rdf:RDF>
  </metadata>
  <g
     transform="translate(10.794806,-96.262016)"
     id="layer1">
    <path
       id="path1048"
       d="m 248.59056,161.41347 c 10.46803,0.35643 30.95869,1.24733 42.05026,2.31642 11.09157,1.06908 12.7843,2.31635 13.84535,4.09947 1.06105,1.78312 1.52247,4.27475 1.21077,5.87839 -0.3117,1.60365 -1.38068,2.40537 -1.5589,3.1183 -0.17823,0.71293 0.5343,1.33638 1.33707,4.59457 0.80278,3.25818 1.6917,9.12507 1.51366,12.59958 -0.17804,3.47451 -1.42526,4.54355 -1.78165,5.2119 -0.35639,0.66835 0.17804,0.93556 0.48978,1.8707 0.31174,0.93513 0.40084,2.53907 0.22279,3.47456 -0.17805,0.93549 -0.62344,1.20273 -8.37954,1.11358 -7.75611,-0.0892 -22.80177,-0.53429 -31.30989,-0.97972 -8.50811,-0.44543 -10.46807,-0.89088 -23.82974,-4.46604 -13.36166,-3.57516 -37.95409,-10.23375 -51.76261,-13.71241 -13.80852,-3.47866 -16.57106,-3.73765 -26.6389,-1.733 -10.06783,2.00465 -27.34981,6.2806 -40.66383,10.081 -13.31401,3.8004 -22.5001,7.06852 -28.95918,9.11763 -6.459081,2.0491 -10.111638,2.85088 -21.961551,3.73969 -11.849913,0.8888 -32.07141,1.87304 -42.099618,2.05038 -10.028208,0.17735 -9.928154,-0.62308 -9.883628,-1.55827 0.04453,-0.93519 0.04453,-2.09383 -0.276072,-2.83308 -0.320597,-0.73926 -1.104735,-1.13132 -1.90653,-1.30953 -0.801796,-0.1782 -1.870741,-0.1782 -2.628233,-0.62381 -0.757493,-0.44561 -1.291884,-1.33626 -0.0018,-9.65712 1.290043,-8.32085 4.411812,-24.10808 6.282776,-32.39342 1.870965,-8.28534 2.494608,-9.08717 6.322518,-9.62145 3.82791,-0.53428 10.871957,-0.80178 14.658286,-1.06912 3.786329,-0.26734 4.320888,-0.53462 4.239897,-1.40789 -0.08099,-0.87328 -0.810277,-2.42301 -0.988342,-3.44762 -0.178065,-1.0246 0.178321,-1.55918 1.778391,-1.91518 1.60007,-0.35599 4.458118,-0.53462 6.017169,-0.6237 1.559051,-0.0891 2.004527,-0.0891 1.588644,-0.91144 -0.415882,-0.82237 -1.544389,-2.38492 -0.965165,-3.67675 0.579224,-1.29183 2.895631,-2.27185 13.941371,-2.04915 11.045739,0.22271 30.82641,1.64834 48.777927,2.18287 17.95152,0.53453 34.07698,0.17816 50.73663,-0.22274 16.65966,-0.4009 33.85429,-0.84635 45.12412,-1.46999 11.26984,-0.62364 16.61531,-1.42546 20.01111,-1.64553 3.3958,-0.22007 4.80036,0.13107 5.69408,0.98831 0.89371,0.85724 1.2442,2.17158 0.93244,3.59706 -0.31176,1.42548 -1.29161,2.93979 -1.5143,3.78635 -0.2227,0.84655 0.31174,1.02469 0.80157,1.42545 0.48983,0.40076 0.93541,1.02458 0.80037,3.30424 -0.13504,2.27966 -0.84485,6.18362 -1.37323,8.57371 -0.52837,2.39009 -0.89699,3.31164 -0.85227,3.66806 0.0447,0.35643 0.49001,0.17831 10.95804,0.53474 z"
       style="fill:#63666c;fill-rule:evenodd;stroke:none;stroke-width:0.26458332px;stroke-linecap:butt;stroke-linejoin:miter;stroke-opacity:1;fill-opacity:1" />
  </g>
</svg>
